<?xml version="1.0" encoding="UTF-8" standalone="no"?>
<!-- Created with Inkscape (http://www.inkscape.org/) -->

<svg
   xmlns:dc="http://purl.org/dc/elements/1.1/"
   xmlns:cc="http://creativecommons.org/ns#"
   xmlns:rdf="http://www.w3.org/1999/02/22-rdf-syntax-ns#"
   xmlns:svg="http://www.w3.org/2000/svg"
   xmlns="http://www.w3.org/2000/svg"
   xmlns:sodipodi="http://sodipodi.sourceforge.net/DTD/sodipodi-0.dtd"
   xmlns:inkscape="http://www.inkscape.org/namespaces/inkscape"
   width="135.12064mm"
   height="21.035622mm"
   viewBox="0 0 135.12064 21.035622"
   version="1.1"
   id="svg8"
   inkscape:version="0.92.3 (2405546, 2018-03-11)"
   sodipodi:docname="logo.svg">
  <defs
     id="defs2" />
  <sodipodi:namedview
     id="base"
     pagecolor="#ffffff"
     bordercolor="#666666"
     borderopacity="1.0"
     inkscape:pageopacity="0.0"
     inkscape:pageshadow="2"
     inkscape:zoom="1.4"
     inkscape:cx="166.14245"
     inkscape:cy="-9.3381322"
     inkscape:document-units="mm"
     inkscape:current-layer="layer1"
     showgrid="false"
     fit-margin-top="0"
     fit-margin-left="0"
     fit-margin-right="0"
     fit-margin-bottom="0"
     inkscape:window-width="1366"
     inkscape:window-height="703"
     inkscape:window-x="0"
     inkscape:window-y="0"
     inkscape:window-maximized="1" />
  <metadata
     id="metadata5">
    <rdf:RDF>
      <cc:Work
         rdf:about="">
        <dc:format>image/svg+xml</dc:format>
        <dc:type
           rdf:resource="http://purl.org/dc/dcmitype/StillImage" />
        <dc:title></dc:title>
      </cc:Work>
    </rdf:RDF>
  </metadata>
  <g
     inkscape:label="Layer 1"
     inkscape:groupmode="layer"
     id="layer1"
     transform="translate(-2.6048138,-112.60015)">
    <g
       aria-label="Hotel Maré"
       style="font-style:normal;font-variant:normal;font-weight:normal;font-stretch:normal;font-size:21.41181564px;line-height:1.25;font-family:'URW Gothic L';-inkscape-font-specification:'URW Gothic L';text-align:center;letter-spacing:0px;word-spacing:0px;text-anchor:middle;fill:#3465a4;fill-opacity:1;stroke:none;stroke-width:0.53529537"
       id="text817">
      <path
         d="m 2.6048138,117.12716 0.2613747,15.98568 2.2896424,0.12546 0.073185,-2.95877 3.3246863,-0.12545 0.08364,2.95876 h 2.101453 l 0.240464,-15.98568 -2.7601166,0.15682 0.2613747,10.39226 -3.1678614,-0.2091 0.3031947,-10.33998 z"
         style="font-style:normal;font-variant:normal;font-weight:normal;font-stretch:normal;font-family:Omiwa;-inkscape-font-specification:Omiwa;fill:#ffffff;fill-opacity:1;stroke-width:0.53529537"
         id="path870" />
      <path
         d="m 17.680907,118.08902 c 2.655567,0 4.202905,1.58916 4.65247,4.77793 0.04182,2.03872 -0.10455,4.07744 -0.43911,6.11617 -0.449564,2.84375 -1.996902,4.25518 -4.652469,4.25518 -2.624202,0 -4.098356,-1.43234 -4.42246,-4.30746 -0.261375,-2.3001 -0.365925,-4.47473 -0.31365,-6.52391 0.12546,-1.47415 0.690029,-2.55102 1.693708,-3.26196 1.014134,-0.70048 2.174638,-1.05595 3.481511,-1.05595 z m -0.2091,3.97289 c -0.616844,0 -1.170958,0.19865 -1.651888,0.60639 -0.480929,0.39729 -0.752759,1.01414 -0.815489,1.84008 -0.03136,1.16051 0.01046,2.38374 0.135915,3.6697 0.135915,1.62053 0.825944,2.43601 2.080543,2.43601 1.244143,0 1.975992,-0.80503 2.206002,-2.4151 0.16728,-1.12914 0.240465,-2.26873 0.23001,-3.42923 -0.2091,-1.80872 -0.930494,-2.70785 -2.185093,-2.70785 z"
         style="font-style:normal;font-variant:normal;font-weight:normal;font-stretch:normal;font-family:Omiwa;-inkscape-font-specification:Omiwa;fill:#ffffff;fill-opacity:1;stroke-width:0.53529537"
         id="path872" />
      <path
         d="m 29.275489,120.94323 -0.23001,12.48326 -2.289642,-0.0523 -0.365925,-12.43098 -3.324686,0.0314 -0.261375,-2.88558 10.036789,0.15682 -0.261375,2.67648 z"
         style="font-style:normal;font-variant:normal;font-weight:normal;font-stretch:normal;font-family:Omiwa;-inkscape-font-specification:Omiwa;fill:#ffffff;fill-opacity:1;stroke-width:0.53529537"
         id="path874" />
      <path
         d="m 39.448193,118.08902 c 2.456922,0.35547 3.85789,1.43233 4.202905,3.23059 0.345015,1.7878 0.365925,3.64879 0.04182,5.57251 -0.07319,0.64821 -0.12546,1.24414 -0.16728,1.79826 l -6.544822,0.10455 c 0.261374,0.99322 0.794579,1.65188 1.599613,1.98644 0.805034,0.34502 1.630978,0.21956 2.477832,-0.37638 l 2.446467,0.55412 c -0.2091,0.60639 -0.637754,1.13959 -1.285963,1.59961 -0.64821,0.46002 -1.714618,0.67958 -3.209682,0.67958 -2.624202,0 -4.27609,-1.43234 -4.945209,-4.30746 -0.261375,-2.3001 -0.365925,-4.47473 -0.31365,-6.52391 0.14637,-1.48461 0.794579,-2.61375 1.934173,-3.36651 1.139594,-0.76321 2.394192,-1.07686 3.763796,-0.9514 z m 1.944628,8.23853 c 0.02091,-0.52275 0.03137,-1.03504 0.03137,-1.55779 -0.02091,-0.8364 -0.240465,-1.54734 -0.637755,-2.11191 -0.407744,-0.56457 -0.920039,-0.85731 -1.547338,-0.85731 -0.627299,0 -1.170959,0.24046 -1.662343,0.72139 -0.480929,0.48093 -0.742304,1.15005 -0.805034,1.98645 -0.03137,0.57503 -0.03137,1.17096 0,1.79826 z"
         style="font-style:normal;font-variant:normal;font-weight:normal;font-stretch:normal;font-family:Omiwa;-inkscape-font-specification:Omiwa;fill:#ffffff;fill-opacity:1;stroke-width:0.53529537"
         id="path876" />
      <path
         d="m 45.637544,117.56627 0.595934,15.65112 6.503003,0.12546 v -2.88558 l -4.33882,0.15682 0.334559,-13.04782 z"
         style="font-style:normal;font-variant:normal;font-weight:normal;font-stretch:normal;font-family:Omiwa;-inkscape-font-specification:Omiwa;fill:#ffffff;fill-opacity:1;stroke-width:0.53529537"
         id="path878" />
      <path
         d="m 66.097959,118.63268 c 0.35547,-0.34502 0.794579,-0.56457 1.285964,-0.65867 0.501839,-0.10455 0.982768,-0.14637 1.463698,-0.12546 1.233688,0.0627 2.070087,0.56457 2.509197,1.49507 0.449564,0.93049 0.669119,2.08054 0.669119,3.45014 l 0.05227,10.21453 -2.373282,-0.12546 -0.10455,-10.55954 c 0,-0.35547 -0.07318,-0.70049 -0.219555,-1.02459 -0.156825,-0.33456 -0.470474,-0.52275 -0.951404,-0.58548 -0.501839,-0.0314 -0.920039,0.0627 -1.244143,0.28229 -0.33456,0.21955 -0.491385,0.54365 -0.491385,0.96185 l 0.282285,10.31908 -2.990127,0.15682 0.135915,-10.13088 c 0.01045,-0.35547 -0.10455,-0.65867 -0.345014,-0.90959 -0.23001,-0.25091 -0.575025,-0.39728 -1.035044,-0.41819 -0.43911,-0.0105 -0.763214,0.15682 -0.951404,0.49138 -0.198645,0.33456 -0.29274,0.71094 -0.27183,1.11868 l 0.10455,10.45499 -2.864667,0.19865 -0.10455,-10.58045 c -0.177734,-3.06331 0.888674,-4.74657 3.178317,-5.03931 0.825944,-0.0314 1.463698,0.0314 1.913263,0.18819 0.449564,0.14637 0.815489,0.44957 1.097773,0.87822 0.135915,0.2091 0.303195,0.32411 0.50184,0.34502 0.18819,0.0209 0.439109,-0.10455 0.752759,-0.39729 z"
         style="font-style:normal;font-variant:normal;font-weight:normal;font-stretch:normal;font-family:Omiwa;-inkscape-font-specification:Omiwa;fill:#ffffff;fill-opacity:1;stroke-width:0.53529537"
         id="path880" />
      <path
         d="m 82.250917,133.2383 c 0,0 -1.787803,0 -5.352954,0 -0.909584,-0.0732 -1.641433,-0.44957 -2.206002,-1.11869 -0.564569,-0.66912 -0.836399,-1.38006 -0.815489,-2.15372 0.06273,-1.36961 0.846854,-2.28965 2.341917,-2.78103 0.512295,-0.21956 1.045499,-0.36593 1.578703,-0.44957 0.533205,-0.0941 1.254599,-0.13591 2.164183,-0.14637 l -0.02091,-1.76689 c 0.01045,-0.87822 -0.09409,-1.75644 -0.31365,-2.6242 -0.219554,-0.86776 -0.690029,-1.32778 -1.411423,-1.35915 -0.585479,0.0523 -1.003679,0.31365 -1.254599,0.78412 -0.250919,0.47048 -0.407744,1.00368 -0.460019,1.61007 -0.05228,0.59594 -0.06273,1.12914 -0.05228,1.58916 l -2.781027,0.0732 c -0.09409,-1.62053 0.2091,-3.18878 0.899129,-4.68384 0.679574,-1.48461 1.923718,-2.27919 3.732431,-2.36283 2.634657,-0.14637 3.951985,1.8819 3.951985,6.0639 z m -2.237367,-4.07745 c -0.58548,0.0314 -1.139594,0.0836 -1.651888,0.15683 -0.07318,0.0104 -0.14637,0.0209 -0.219555,0.0209 -0.240465,0.0314 -0.501839,0.115 -0.763214,0.25092 -0.261375,0.12546 -0.39729,0.3241 -0.407745,0.58547 0.02091,0.25092 0.12546,0.42866 0.31365,0.5123 0.198645,0.0941 0.512294,0.15682 0.961859,0.18819 0.658664,0.0627 1.265053,0.0732 1.798258,0.0523 z"
         style="font-style:normal;font-variant:normal;font-weight:normal;font-stretch:normal;font-family:Omiwa;-inkscape-font-specification:Omiwa;fill:#ffffff;fill-opacity:1;stroke-width:0.53529537"
         id="path882" />
      <path
         d="m 87.164757,121.60189 c 2.090997,-1.42187 3.376961,-1.31732 3.847435,0.33456 l 3.126042,-0.0836 c -0.09409,-1.04549 -0.37638,-1.94462 -0.857309,-2.71829 -0.48093,-0.76322 -1.181414,-1.21278 -2.080543,-1.32779 -0.773669,-0.0836 -1.515973,-0.0314 -2.247822,0.13592 -0.742304,0.17773 -1.306874,0.47047 -1.704163,0.86776 l 0.02091,-1.26505 h -3.533786 l 0.575024,15.95431 2.540562,0.13592 z"
         style="font-style:normal;font-variant:normal;font-weight:normal;font-stretch:normal;font-family:Omiwa;-inkscape-font-specification:Omiwa;fill:#ffffff;fill-opacity:1;stroke-width:0.53529537"
         id="path884" />
      <path
         d="m 101.41491,118.05765 c 2.46738,0.37638 3.86834,1.4637 4.2029,3.27242 0.34502,1.80871 0.35547,3.6697 0.0209,5.60387 -0.0732,0.6273 -0.12546,1.21278 -0.16728,1.75644 l -6.523909,0.10455 c 0.25092,0.98277 0.773669,1.64143 1.578699,1.97599 0.80504,0.33456 1.64144,0.2091 2.49875,-0.36593 l 2.44646,0.52275 c -0.2091,0.61685 -0.63775,1.16051 -1.29641,1.62053 -0.64821,0.46002 -1.71462,0.69003 -3.19923,0.69003 -2.624203,0 -4.286546,-1.44279 -4.966121,-4.31791 -0.261374,-2.28965 -0.355469,-4.46428 -0.282284,-6.52392 0.12546,-1.49506 0.763214,-2.61374 1.902808,-3.37696 1.150048,-0.76321 2.404647,-1.07686 3.784707,-0.96186 z m 1.92372,8.23853 c 0.0314,-0.52274 0.0523,-1.03504 0.0523,-1.55779 -0.0314,-0.82594 -0.26137,-1.52643 -0.65866,-2.091 -0.40775,-0.56457 -0.9305,-0.84685 -1.54734,-0.84685 -0.6273,0 -1.18142,0.24046 -1.662345,0.72139 -0.480929,0.48093 -0.752759,1.1396 -0.805034,1.98645 -0.03137,0.56457 -0.03137,1.16051 0,1.7878 z m -2.08055,-13.69603 -1.630975,3.45015 1.348695,0.97231 3.06331,-4.24473 z"
         style="font-style:normal;font-variant:normal;font-weight:normal;font-stretch:normal;font-family:Omiwa;-inkscape-font-specification:Omiwa;fill:#ffffff;fill-opacity:1;stroke-width:0.53529537"
         id="path886" />
    </g>
    <g
       id="g833"
       transform="matrix(0.29067876,0,0,0.29067876,109.14084,108.63431)"
       style="fill:#3465a4;fill-opacity:1">
      <path
         style="clip-rule:evenodd;fill:#ffffff;fill-opacity:1;fill-rule:evenodd;stroke-width:1.0986284"
         d="m 458.93359,425.96875 c -20.33634,-0.53497 -42.4652,13.99237 -44.30664,40.33789 -0.42846,6.12266 -0.3413,13.60818 -0.0996,21.01953 1.19092,-0.34716 2.41566,-0.76367 3.71094,-1.2207 3.2838,-1.16015 6.68019,-2.35742 10.05078,-2.35742 2.62572,0 5.00135,0.96033 7.30078,1.88867 2.10058,0.84704 4.08619,1.64648 6.07032,1.64648 1.98522,0 3.96778,-0.79944 6.06836,-1.64648 2.29942,-0.92834 4.67811,-1.88867 7.30273,-1.88867 2.62462,0 5.00331,0.96033 7.30273,1.88867 2.10058,0.84704 4.08619,1.64648 6.07032,1.64648 1.98522,0 3.96778,-0.79944 6.06836,-1.64648 2.29943,-0.92834 4.67811,-1.88867 7.30273,-1.88867 2.62462,0 5.00331,0.96033 7.30273,1.88867 2.09948,0.84704 4.08424,1.64648 6.06836,1.64648 1.98413,0 3.96974,-0.79944 6.07032,-1.64648 1.62707,-0.65698 3.297,-1.32483 5.0625,-1.66211 -20.25432,-1.92809 -47.33789,-8.40742 -47.33789,-26.56445 0,-9.33615 5.80715,-12.33716 11.16406,-10.90235 1.45129,0.38892 4.99779,2.79091 2.75,6.68555 -1.61828,2.8004 -5.7135,2.32312 -5.54102,3.20312 0.13294,0.67786 0.64124,1.24048 1.3125,1.7129 12.21126,8.59347 30.4616,-9.2143 12.03321,-24.39844 -6.08616,-5.01613 -13.76887,-7.53286 -21.72657,-7.74219 z m -30.64257,61.07422 c -2.8059,0 -5.9308,1.10401 -8.95313,2.17187 -1.54797,0.54602 -3.14966,1.11023 -4.68555,1.51563 l -0.004,-0.0176 c 0.0494,1.39855 0.10583,2.78345 0.16406,4.15234 1.17114,-0.35375 2.35486,-0.76953 3.59961,-1.22656 3.08495,-1.13268 6.27296,-2.30469 9.59961,-2.30469 2.62572,0 5.0033,0.96034 7.30273,1.88868 2.10058,0.84704 4.08424,1.64843 6.06836,1.64843 1.98522,0 3.96974,-0.80139 6.07031,-1.64843 2.29943,-0.92834 4.67812,-1.88868 7.30274,-1.88868 2.62462,0 5.0033,0.96034 7.30273,1.88868 2.10058,0.84704 4.08424,1.64843 6.06836,1.64843 1.98522,0 3.96974,-0.80139 6.07032,-1.64843 2.29942,-0.92834 4.67811,-1.88868 7.30273,-1.88868 2.62462,0 5.00331,0.96034 7.30273,1.88868 2.09948,0.84704 4.08424,1.64843 6.06836,1.64843 1.98413,0 3.96779,-0.80139 6.06836,-1.64843 2.29943,-0.92834 4.67921,-1.88868 7.30274,-1.88868 3.3607,0 6.48377,1.11475 9.5039,2.19141 0.95361,0.34058 1.87305,0.65528 2.78711,0.94531 v -4.22851 c -1.22387,-0.36585 -2.43945,-0.7815 -3.61718,-1.20117 -2.8839,-1.02832 -5.60622,-1.99805 -8.39454,-1.99805 -1.98522,0 -3.96973,0.80139 -6.07031,1.64844 -2.29943,0.92834 -4.67616,1.88867 -7.30078,1.88867 -2.62462,0 -5.0033,-0.96033 -7.30273,-1.88867 -2.10058,-0.84705 -4.08424,-1.64844 -6.06836,-1.64844 -1.98632,0 -3.96974,0.80139 -6.07032,1.64844 -2.29942,0.92834 -4.67701,1.88867 -7.30273,1.88867 -2.62462,0 -5.00331,-0.96033 -7.30273,-1.88867 -2.10058,-0.84705 -4.08424,-1.64844 -6.06836,-1.64844 -1.98523,0 -3.96974,0.80139 -6.07032,1.64844 -2.29943,0.92834 -4.67811,1.88867 -7.30273,1.88867 -2.62462,0 -5.00331,-0.96033 -7.30273,-1.88867 -2.10058,-0.84705 -4.08424,-1.64844 -6.06836,-1.64844 z m -0.2754,7.58789 c -2.73997,0 -5.51856,1.02051 -8.46289,2.10156 -1.49743,0.54932 -3.04541,1.11158 -4.58789,1.53125 0.0527,1.18872 0.10181,2.34559 0.15235,3.48047 1.11511,-0.33288 2.22888,-0.71167 3.39453,-1.12695 3.02013,-1.07776 6.1443,-2.19141 9.5039,-2.19141 2.62573,0 5.00331,0.96033 7.30274,1.88867 2.10058,0.84705 4.08424,1.64649 6.06836,1.64649 1.98522,0 3.96973,-0.79944 6.07031,-1.64649 2.29943,-0.92834 4.67811,-1.88867 7.30274,-1.88867 2.62462,0 5.0033,0.96033 7.30273,1.88867 2.10058,0.84705 4.08424,1.64649 6.06836,1.64649 1.98522,0 3.96973,-0.79944 6.07031,-1.64649 2.29943,-0.92834 4.67811,-1.88867 7.30274,-1.88867 2.62462,0 5.0033,0.96033 7.30273,1.88867 2.09948,0.84705 4.08228,1.64649 6.06641,1.64649 1.98412,0 3.96973,-0.79944 6.07031,-1.64649 2.29943,-0.92834 4.67921,-1.88867 7.30273,-1.88867 3.36071,0 6.48378,1.11475 9.50391,2.19141 0.95361,0.34057 1.8711,0.65332 2.78516,0.94336 v -3.64844 c -1.32275,-0.38232 -2.62806,-0.82971 -3.89258,-1.28125 -2.8817,-1.02942 -5.60707,-2 -8.39649,-2 -1.98522,0 -3.96778,0.79944 -6.06836,1.64648 -2.29942,0.92834 -4.67811,1.88868 -7.30273,1.88868 -2.62462,0 -5.00135,-0.96034 -7.30078,-1.88868 -2.10058,-0.84704 -4.08619,-1.64648 -6.07031,-1.64648 -1.98632,0 -3.96779,0.79944 -6.06836,1.64648 -2.29943,0.92834 -4.67702,1.88868 -7.30274,1.88868 -2.62462,0 -5.0033,-0.96034 -7.30273,-1.88868 -2.10058,-0.84704 -4.08619,-1.64648 -6.07031,-1.64648 -1.98523,0 -3.96779,0.79944 -6.06836,1.64648 -2.29943,0.92834 -4.67811,1.88868 -7.30274,1.88868 -2.62462,0 -5.0033,-0.96034 -7.30273,-1.88868 -2.10058,-0.84704 -4.08509,-1.64648 -6.07032,-1.64648 z m -0.002,7.08984 c -2.78942,0 -5.51368,0.96973 -8.39648,1.99805 -1.34802,0.4812 -2.73951,0.96692 -4.15235,1.36133 l 0.11133,-0.0137 h 23.76367 c -1.8391,-0.3241 -3.57032,-1.01807 -5.25781,-1.69922 -2.09948,-0.84704 -4.08314,-1.64649 -6.06836,-1.64649 z m 26.74414,0 c -1.98522,0 -3.96778,0.79945 -6.06836,1.64649 -1.68749,0.68115 -3.42066,1.37512 -5.25976,1.69922 h 22.65625 c -1.83911,-0.3241 -3.57032,-1.01807 -5.25782,-1.69922 -2.10057,-0.84704 -4.08509,-1.64649 -6.07031,-1.64649 z m 26.7461,0 c -1.98632,0 -3.96974,0.79945 -6.07032,1.64649 -1.68749,0.68115 -3.4187,1.37512 -5.25781,1.69922 h 22.6543 c -1.83911,-0.3241 -3.56837,-1.01807 -5.25586,-1.69922 -2.10168,-0.84704 -4.08619,-1.64649 -6.07031,-1.64649 z m 26.74218,0 c -1.98522,0 -3.96778,0.79945 -6.06836,1.64649 -1.68749,0.68115 -3.4198,1.37512 -5.25781,1.69922 h 23.61719 v -0.0645 c -1.32275,-0.38232 -2.62806,-0.83166 -3.89258,-1.2832 -2.8839,-1.02832 -5.60902,-1.99805 -8.39844,-1.99805 z"
         transform="matrix(0.91022589,0,0,0.91022589,-375.46892,-373.72634)"
         id="path819"
         inkscape:connector-curvature="0" />
    </g>
  </g>
</svg>
