<?xml version="1.0" encoding="UTF-8" standalone="no"?>
<svg
   xmlns:dc="http://purl.org/dc/elements/1.1/"
   xmlns:cc="http://creativecommons.org/ns#"
   xmlns:rdf="http://www.w3.org/1999/02/22-rdf-syntax-ns#"
   xmlns:svg="http://www.w3.org/2000/svg"
   xmlns="http://www.w3.org/2000/svg"
   xmlns:sodipodi="http://sodipodi.sourceforge.net/DTD/sodipodi-0.dtd"
   xmlns:inkscape="http://www.inkscape.org/namespaces/inkscape"
   version="1.1"
   x="0px"
   y="0px"
   viewBox="0 0 96.677017 72.020798"
   enable-background="new 0 0 100 100"
   xml:space="preserve"
   id="svg22"
   sodipodi:docname="wave.svg"
   width="96.677017"
   height="72.020798"
   inkscape:version="0.92.3 (2405546, 2018-03-11)"><metadata
     id="metadata28"><rdf:RDF><cc:Work
         rdf:about=""><dc:format>image/svg+xml</dc:format><dc:type
           rdf:resource="http://purl.org/dc/dcmitype/StillImage" /><dc:title></dc:title></cc:Work></rdf:RDF></metadata><defs
     id="defs26" /><sodipodi:namedview
     pagecolor="#ffffff"
     bordercolor="#666666"
     borderopacity="1"
     objecttolerance="10"
     gridtolerance="10"
     guidetolerance="10"
     inkscape:pageopacity="0"
     inkscape:pageshadow="2"
     inkscape:window-width="1366"
     inkscape:window-height="703"
     id="namedview24"
     showgrid="false"
     fit-margin-top="0"
     fit-margin-left="0"
     fit-margin-right="0"
     fit-margin-bottom="0"
     inkscape:zoom="1.888"
     inkscape:cx="-21.883126"
     inkscape:cy="-20.753974"
     inkscape:window-x="0"
     inkscape:window-y="0"
     inkscape:window-maximized="1"
     inkscape:current-layer="svg22" /><g
     id="g16"
     transform="translate(-1.66087,-13.988966)"><path
       d="M 42.263672,14.001953 C 23.753003,13.515013 3.6116719,26.738375 1.9355469,50.71875 c -0.39,5.573 -0.3117969,12.386812 -0.091797,19.132812 1.084,-0.316 2.1999062,-0.695328 3.3789062,-1.111328 2.9890001,-1.056 6.0784849,-2.146484 9.1464849,-2.146484 2.39,0 4.555437,0.87375 6.648437,1.71875 1.912,0.771 3.717438,1.5 5.523438,1.5 1.807,0 3.61339,-0.729 5.52539,-1.5 2.093,-0.845 4.257485,-1.71875 6.646485,-1.71875 2.389,0 4.553484,0.87375 6.646484,1.71875 1.912,0.771 3.719391,1.5 5.525391,1.5 1.807,0 3.611437,-0.729 5.523437,-1.5 2.093,-0.845 4.259438,-1.71875 6.648438,-1.71875 2.389,0 4.553484,0.87375 6.646484,1.71875 1.911,0.771 3.717438,1.5 5.523437,1.5 1.806,0 3.613391,-0.729 5.525391,-1.5 1.481,-0.598 3.000422,-1.204719 4.607422,-1.511719 -18.436,-1.755 -43.087891,-7.652687 -43.087891,-24.179687 0,-8.498 5.28611,-11.231782 10.16211,-9.925782 1.321,0.354 4.547953,2.540938 2.501953,6.085938 -1.473,2.549 -5.199969,2.115016 -5.042969,2.916016 0.121,0.617 0.584313,1.130547 1.195313,1.560546 11.115,7.822001 27.727125,-8.387984 10.953125,-22.208984 C 56.501234,16.483016 49.506977,14.192495 42.263672,14.001953 Z M 14.373047,69.59375 c -2.554,0 -5.3993908,1.002609 -8.1503908,1.974609 -1.4089999,0.497 -2.8656718,1.01186 -4.2636718,1.38086 l -0.00391,-0.01563 c 0.045,1.273 0.097391,2.533297 0.1503907,3.779297 1.066,-0.322 2.1423906,-0.699235 3.2753906,-1.115235 2.808,-1.031 5.7102813,-2.099609 8.7382813,-2.099609 2.39,0 4.553484,0.875703 6.646484,1.720703 1.912,0.771 3.717437,1.5 5.523437,1.5 1.807,0 3.613391,-0.729 5.525391,-1.5 2.093,-0.845 4.259438,-1.720703 6.648438,-1.720703 2.389,0 4.553484,0.875703 6.646484,1.720703 1.912,0.771 3.717438,1.5 5.523437,1.5 1.807001,0 3.613391,-0.729 5.525391,-1.5 2.093,-0.845 4.257485,-1.720703 6.646485,-1.720703 2.388999,0 4.553484,0.875703 6.646484,1.720703 1.911,0.771 3.717437,1.5 5.523437,1.5 1.806,0 3.613391,-0.729 5.525391,-1.5 2.093,-0.845 4.258484,-1.720703 6.646484,-1.720703 3.059,0 5.901391,1.016094 8.650391,1.996094 0.868,0.31 1.703156,0.595375 2.535156,0.859375 v -3.84961 c -1.114,-0.333 -2.219015,-0.709797 -3.291015,-1.091797 -2.625,-0.936 -5.102625,-1.818359 -7.640625,-1.818359 -1.807,0 -3.611438,0.729 -5.523438,1.5 -2.093,0.845 -4.259437,1.71875 -6.648437,1.71875 -2.389,0 -4.553485,-0.87375 -6.646485,-1.71875 -1.912,-0.771 -3.717437,-1.5 -5.523437,-1.5 -1.808,0 -3.613391,0.729 -5.525391,1.5 -2.093,0.845 -4.256484,1.71875 -6.646484,1.71875 -2.389,0 -4.553485,-0.87375 -6.646485,-1.71875 -1.912,-0.771 -3.717437,-1.5 -5.523437,-1.5 -1.807,0 -3.613391,0.729 -5.525391,1.5 -2.093,0.845 -4.257484,1.71875 -6.646484,1.71875 -2.389,0 -4.555438,-0.87375 -6.648438,-1.71875 -1.912,-0.771 -3.717437,-1.5 -5.523437,-1.5 z m -0.251953,6.904297 c -2.494,0 -5.0231253,0.930062 -7.7031252,1.914062 -1.3630001,0.5 -2.7717813,1.012532 -4.1757813,1.394532 0.048,1.082 0.094625,2.134968 0.140625,3.167968 1.015,-0.303 2.0288438,-0.649343 3.0898437,-1.027343 2.7490001,-0.981 5.5904378,-1.994141 8.6484378,-1.994141 2.39,0 4.555437,0.87375 6.648437,1.71875 1.912,0.771 3.717438,1.5 5.523438,1.5 1.807,0 3.61339,-0.729 5.52539,-1.5 2.093,-0.845 4.257485,-1.71875 6.646485,-1.71875 2.389,0 4.553484,0.87375 6.646484,1.71875 1.912,0.771 3.719391,1.5 5.525391,1.5 1.807,0 3.611437,-0.729 5.523437,-1.5 2.093,-0.845 4.259438,-1.71875 6.648438,-1.71875 2.389,0 4.553484,0.87375 6.646484,1.71875 1.911,0.771 3.717438,1.5 5.523438,1.5 1.806,0 3.61339,-0.729 5.52539,-1.5 2.093,-0.845 4.256532,-1.71875 6.644532,-1.71875 3.058999,0 5.903343,1.014141 8.652343,1.994141 0.868,0.31 1.703157,0.595375 2.535157,0.859375 v -3.320313 c -1.204,-0.348 -2.391969,-0.755016 -3.542969,-1.166016 -2.623,-0.937 -5.103578,-1.822265 -7.642578,-1.822265 -1.807,0 -3.611438,0.729 -5.523438,1.5 -2.093,0.845 -4.259437,1.720703 -6.648437,1.720703 -2.389,0 -4.553485,-0.875703 -6.646485,-1.720703 -1.912,-0.771 -3.717437,-1.5 -5.523437,-1.5 -1.808,0 -3.613391,0.729 -5.525391,1.5 -2.093,0.845 -4.256484,1.720703 -6.646484,1.720703 -2.389,0 -4.553485,-0.875703 -6.646485,-1.720703 -1.912,-0.771 -3.717437,-1.5 -5.523437,-1.5 -1.807,0 -3.613391,0.729 -5.525391,1.5 -2.093,0.845 -4.257484,1.720703 -6.646484,1.720703 -2.389,0 -4.555438,-0.875703 -6.648438,-1.720703 -1.912,-0.771 -3.71839,-1.5 -5.52539,-1.5 z m -0.002,6.453125 c -2.539,0 -5.0166254,0.884312 -7.6406254,1.820312 -1.227,0.438 -2.49525,0.879282 -3.78125,1.238282 l 0.1035156,-0.01172 H 24.429688 c -1.674,-0.295 -3.249157,-0.926875 -4.785157,-1.546875 -1.911,-0.771 -3.71839,-1.5 -5.52539,-1.5 z m 24.345703,0 c -1.807,0 -3.613391,0.729 -5.525391,1.5 -1.536,0.62 -3.113109,1.251875 -4.787109,1.546875 h 20.621094 c -1.674,-0.295 -3.249157,-0.926875 -4.785157,-1.546875 -1.912,-0.771 -3.716437,-1.5 -5.523437,-1.5 z m 24.34375,0 c -1.808,0 -3.613391,0.729 -5.525391,1.5 -1.536,0.62 -3.111156,1.251875 -4.785156,1.546875 h 20.619141 c -1.674001,-0.295 -3.249157,-0.926875 -4.785157,-1.546875 -1.913,-0.771 -3.717437,-1.5 -5.523437,-1.5 z m 24.341797,0 c -1.807,0 -3.611438,0.729 -5.523438,1.5 -1.536,0.62 -3.112156,1.251875 -4.785156,1.546875 h 21.496094 v -0.05859 c -1.204,-0.348 -2.391969,-0.756969 -3.542969,-1.167969 -2.625,-0.936 -5.105531,-1.820312 -7.644531,-1.820312 z"
       id="path2"
       inkscape:connector-curvature="0"
       style="fill:#ffffff" /></g></svg>